<svg xmlns="http://www.w3.org/2000/svg" xmlns:xlink="http://www.w3.org/1999/xlink" width="72" zoomAndPan="magnify" viewBox="0 0 54 54" height="72" preserveAspectRatio="xMidYMid meet" version="1.0"><defs><g/></defs><g fill="#54defd" fill-opacity="1"><g transform="translate(9.813387, 51.219772)"><g><path d="M 25.703125 -36.4375 C 25.703125 -38.570312 24.988281 -40.394531 23.5625 -41.90625 C 22.132812 -43.414062 20.226562 -44.171875 17.84375 -44.171875 C 14.863281 -44.171875 12.609375 -43.363281 11.078125 -41.75 C 9.554688 -40.132812 8.796875 -37.945312 8.796875 -35.1875 C 8.796875 -34.257812 8.5 -33.492188 7.90625 -32.890625 C 7.320312 -32.285156 6.550781 -31.984375 5.59375 -31.984375 C 4.664062 -31.984375 3.898438 -32.285156 3.296875 -32.890625 C 2.691406 -33.492188 2.390625 -34.257812 2.390625 -35.1875 C 2.390625 -38.070312 3.023438 -40.644531 4.296875 -42.90625 C 5.578125 -45.164062 7.390625 -46.925781 9.734375 -48.1875 C 12.078125 -49.445312 14.78125 -50.078125 17.84375 -50.078125 C 20.519531 -50.078125 22.9375 -49.5 25.09375 -48.34375 C 27.25 -47.195312 28.9375 -45.585938 30.15625 -43.515625 C 31.375 -41.441406 31.984375 -39.082031 31.984375 -36.4375 C 31.984375 -34.175781 31.625 -32.195312 30.90625 -30.5 C 30.195312 -28.800781 29.234375 -27.289062 28.015625 -25.96875 C 26.804688 -24.65625 25.238281 -23.222656 23.3125 -21.671875 C 22.300781 -20.878906 21.566406 -19.8125 21.109375 -18.46875 C 20.648438 -17.132812 20.421875 -15.921875 20.421875 -14.828125 C 20.421875 -13.898438 20.125 -13.132812 19.53125 -12.53125 C 18.945312 -11.925781 18.175781 -11.625 17.21875 -11.625 C 16.289062 -11.625 15.523438 -11.925781 14.921875 -12.53125 C 14.316406 -13.132812 14.015625 -13.898438 14.015625 -14.828125 C 14.015625 -16.585938 14.453125 -18.429688 15.328125 -20.359375 C 16.210938 -22.285156 17.488281 -23.957031 19.15625 -25.375 C 20.75 -26.71875 21.953125 -27.828125 22.765625 -28.703125 C 23.585938 -29.585938 24.28125 -30.65625 24.84375 -31.90625 C 25.414062 -33.164062 25.703125 -34.675781 25.703125 -36.4375 Z M 17.21875 -8.734375 C 18.425781 -8.734375 19.457031 -8.300781 20.3125 -7.4375 C 21.175781 -6.582031 21.609375 -5.546875 21.609375 -4.328125 C 21.609375 -3.160156 21.175781 -2.144531 20.3125 -1.28125 C 19.457031 -0.425781 18.425781 0 17.21875 0 C 16.039062 0 15.019531 -0.425781 14.15625 -1.28125 C 13.300781 -2.144531 12.875 -3.160156 12.875 -4.328125 C 12.875 -5.546875 13.300781 -6.582031 14.15625 -7.4375 C 15.019531 -8.300781 16.039062 -8.734375 17.21875 -8.734375 Z M 17.21875 -8.734375 "/></g></g></g></svg>