<svg xmlns="http://www.w3.org/2000/svg" xmlns:xlink="http://www.w3.org/1999/xlink" width="72" zoomAndPan="magnify" viewBox="0 0 54 54" height="72" preserveAspectRatio="xMidYMid meet" version="1.0"><defs><g/></defs><g fill="#06f8fd" fill-opacity="1"><g transform="translate(8.913068, 47.127273)"><g><path d="M 0.59375 0 L 0.59375 -0.59375 L 1.59375 -0.890625 C 2.414062 -1.160156 3.0625 -1.519531 3.53125 -1.96875 C 4 -2.425781 4.472656 -3.007812 4.953125 -3.71875 L 14.015625 -17.734375 L 3.71875 -35.28125 C 3.320312 -35.945312 2.984375 -36.46875 2.703125 -36.84375 C 2.429688 -37.21875 1.921875 -37.5625 1.171875 -37.875 L 0.234375 -38.296875 L 0.234375 -38.875 L 16.015625 -38.875 L 16.015625 -38.296875 L 14.671875 -37.875 C 13.847656 -37.601562 13.394531 -37.171875 13.3125 -36.578125 C 13.226562 -35.992188 13.425781 -35.285156 13.90625 -34.453125 L 19.96875 -24.15625 L 26.453125 -34.40625 C 26.960938 -35.226562 27.265625 -35.972656 27.359375 -36.640625 C 27.460938 -37.304688 27.0625 -37.757812 26.15625 -38 L 24.96875 -38.296875 L 24.96875 -38.875 L 33.171875 -38.875 L 33.171875 -38.296875 L 31.625 -37.8125 C 30.882812 -37.613281 30.304688 -37.289062 29.890625 -36.84375 C 29.484375 -36.394531 29.0625 -35.835938 28.625 -35.171875 L 20.734375 -22.859375 L 31.921875 -3.71875 C 32.359375 -3.007812 32.769531 -2.46875 33.15625 -2.09375 C 33.550781 -1.71875 34.101562 -1.375 34.8125 -1.0625 L 35.9375 -0.59375 L 35.9375 0 L 19.4375 0 L 19.4375 -0.59375 L 20.796875 -0.9375 C 21.734375 -1.175781 22.257812 -1.609375 22.375 -2.234375 C 22.5 -2.867188 22.304688 -3.597656 21.796875 -4.421875 L 14.78125 -16.375 L 7.0625 -4.1875 C 6.550781 -3.394531 6.34375 -2.6875 6.4375 -2.0625 C 6.539062 -1.4375 6.96875 -1.023438 7.71875 -0.828125 L 8.546875 -0.59375 L 8.546875 0 Z M 0.59375 0 "/></g></g></g></svg>