<svg xmlns="http://www.w3.org/2000/svg" xmlns:xlink="http://www.w3.org/1999/xlink" width="72" zoomAndPan="magnify" viewBox="0 0 54 54" height="72" preserveAspectRatio="xMidYMid meet" version="1.0"><defs><g/></defs><g fill="#1f1f1f" fill-opacity="1"><g transform="translate(4.503515, 51.219772)"><g><path d="M 41.28125 -5.28125 C 41.738281 -4.601562 41.96875 -3.890625 41.96875 -3.140625 C 41.96875 -2.304688 41.691406 -1.570312 41.140625 -0.9375 C 40.597656 -0.3125 39.867188 0 38.953125 0 C 37.898438 0 37.0625 -0.394531 36.4375 -1.1875 L 22.8125 -20.109375 L 8.359375 -0.9375 C 7.722656 -0.3125 6.96875 0 6.09375 0 C 5.175781 0 4.453125 -0.289062 3.921875 -0.875 C 3.398438 -1.46875 3.140625 -2.179688 3.140625 -3.015625 C 3.140625 -3.847656 3.390625 -4.601562 3.890625 -5.28125 L 18.53125 -24.75 L 4.71875 -43.921875 C 4.289062 -44.460938 4.078125 -45.109375 4.078125 -45.859375 C 4.078125 -46.742188 4.347656 -47.5 4.890625 -48.125 C 5.441406 -48.75 6.175781 -49.0625 7.09375 -49.0625 C 8.1875 -49.0625 8.960938 -48.75 9.421875 -48.125 L 22.9375 -29.40625 L 37 -48.125 C 37.59375 -48.75 38.367188 -49.0625 39.328125 -49.0625 C 40.210938 -49.0625 40.914062 -48.769531 41.4375 -48.1875 C 41.957031 -47.601562 42.21875 -46.890625 42.21875 -46.046875 C 42.21875 -45.335938 41.988281 -44.628906 41.53125 -43.921875 L 27.203125 -24.8125 Z M 41.28125 -5.28125 "/></g></g></g></svg>