<svg xmlns="http://www.w3.org/2000/svg" xmlns:xlink="http://www.w3.org/1999/xlink" width="72" zoomAndPan="magnify" viewBox="0 0 54 54" height="72" preserveAspectRatio="xMidYMid meet" version="1.0"><defs><g/></defs><g fill="#1f1f1f" fill-opacity="1"><g transform="translate(0.767045, 50.483416)"><g><path d="M 20.53125 -29.484375 C 23.976562 -29.648438 26.867188 -29.910156 29.203125 -30.265625 C 31.535156 -30.617188 33.398438 -31.054688 34.796875 -31.578125 C 36.203125 -32.097656 37.203125 -32.691406 37.796875 -33.359375 C 38.390625 -34.023438 38.6875 -34.757812 38.6875 -35.5625 C 38.6875 -36.3125 38.441406 -36.984375 37.953125 -37.578125 C 37.460938 -38.171875 36.753906 -38.664062 35.828125 -39.0625 C 34.910156 -39.46875 33.789062 -39.769531 32.46875 -39.96875 C 31.15625 -40.175781 29.671875 -40.28125 28.015625 -40.28125 C 26.234375 -40.28125 24.429688 -40.164062 22.609375 -39.9375 C 20.785156 -39.71875 19.035156 -39.410156 17.359375 -39.015625 C 15.679688 -38.628906 14.109375 -38.171875 12.640625 -37.640625 C 11.171875 -37.109375 9.882812 -36.546875 8.78125 -35.953125 L 4.296875 -43.3125 C 5.335938 -43.925781 6.644531 -44.566406 8.21875 -45.234375 C 9.789062 -45.898438 11.570312 -46.507812 13.5625 -47.0625 C 15.5625 -47.613281 17.738281 -48.0625 20.09375 -48.40625 C 22.445312 -48.757812 24.929688 -48.9375 27.546875 -48.9375 C 30.796875 -48.9375 33.710938 -48.632812 36.296875 -48.03125 C 38.890625 -47.425781 41.082031 -46.554688 42.875 -45.421875 C 44.664062 -44.285156 46.035156 -42.890625 46.984375 -41.234375 C 47.929688 -39.578125 48.40625 -37.695312 48.40625 -35.59375 C 48.40625 -33.988281 48.09375 -32.507812 47.46875 -31.15625 C 46.84375 -29.8125 45.796875 -28.597656 44.328125 -27.515625 C 42.859375 -26.429688 40.894531 -25.488281 38.4375 -24.6875 C 35.988281 -23.894531 32.929688 -23.253906 29.265625 -22.765625 L 29.265625 -17.453125 L 20.53125 -17.453125 Z M 18.4375 -5.3125 C 18.4375 -6.125 18.601562 -6.894531 18.9375 -7.625 C 19.28125 -8.351562 19.769531 -8.988281 20.40625 -9.53125 C 21.039062 -10.070312 21.804688 -10.492188 22.703125 -10.796875 C 23.597656 -11.109375 24.609375 -11.265625 25.734375 -11.265625 C 26.859375 -11.265625 27.867188 -11.109375 28.765625 -10.796875 C 29.671875 -10.492188 30.4375 -10.070312 31.0625 -9.53125 C 31.6875 -8.988281 32.164062 -8.351562 32.5 -7.625 C 32.84375 -6.894531 33.015625 -6.125 33.015625 -5.3125 C 33.015625 -4.488281 32.84375 -3.710938 32.5 -2.984375 C 32.164062 -2.265625 31.6875 -1.640625 31.0625 -1.109375 C 30.4375 -0.578125 29.671875 -0.15625 28.765625 0.15625 C 27.867188 0.476562 26.859375 0.640625 25.734375 0.640625 C 24.609375 0.640625 23.597656 0.476562 22.703125 0.15625 C 21.804688 -0.15625 21.039062 -0.578125 20.40625 -1.109375 C 19.769531 -1.640625 19.28125 -2.265625 18.9375 -2.984375 C 18.601562 -3.710938 18.4375 -4.488281 18.4375 -5.3125 Z M 18.4375 -5.3125 "/></g></g></g></svg>