<svg xmlns="http://www.w3.org/2000/svg" xmlns:xlink="http://www.w3.org/1999/xlink" width="72" zoomAndPan="magnify" viewBox="0 0 54 54" height="72" preserveAspectRatio="xMidYMid meet" version="1.0"><defs><g/></defs><g fill="#1f1f1f" fill-opacity="1"><g transform="translate(4.874574, 50.728889)"><g><path d="M 6.078125 -0.640625 C 4.503906 -1.722656 4.269531 -3.113281 5.375 -4.8125 L 18.3125 -23.890625 L 4.671875 -43.125 C 3.609375 -44.675781 3.863281 -46.066406 5.4375 -47.296875 C 7.0625 -48.398438 8.429688 -48.140625 9.546875 -46.515625 L 22.203125 -28.765625 L 34.921875 -46.515625 C 36.140625 -48.085938 37.503906 -48.296875 39.015625 -47.140625 C 40.617188 -45.960938 40.851562 -44.597656 39.71875 -43.046875 L 25.796875 -23.6875 L 39.15625 -4.875 C 40.269531 -3.25 40.015625 -1.835938 38.390625 -0.640625 C 36.753906 0.472656 35.382812 0.21875 34.28125 -1.40625 L 21.984375 -18.734375 L 10.25 -1.34375 C 9.164062 0.1875 7.773438 0.421875 6.078125 -0.640625 Z M 6.078125 -0.640625 "/></g></g></g></svg>