<svg xmlns="http://www.w3.org/2000/svg" xmlns:xlink="http://www.w3.org/1999/xlink" width="72" zoomAndPan="magnify" viewBox="0 0 54 54" height="72" preserveAspectRatio="xMidYMid meet" version="1.0"><defs><g/></defs><g fill="#06f8fd" fill-opacity="1"><g transform="translate(10.267862, 41.236364)"><g><path d="M 0.765625 0 L 0.765625 -0.59375 L 2.296875 -0.9375 C 3.203125 -1.132812 3.9375 -1.4375 4.5 -1.84375 C 5.070312 -2.257812 5.613281 -2.84375 6.125 -3.59375 L 12.484375 -12.71875 L 4.484375 -25.453125 C 4.085938 -26.035156 3.734375 -26.484375 3.421875 -26.796875 C 3.109375 -27.117188 2.613281 -27.359375 1.9375 -27.515625 L 1.125 -27.75 L 1.125 -28.328125 L 16.078125 -28.328125 L 16.078125 -27.75 L 15.078125 -27.515625 C 13.703125 -27.078125 13.425781 -26.210938 14.25 -24.921875 L 19.078125 -17.4375 L 24.328125 -24.6875 C 24.753906 -25.351562 24.957031 -25.910156 24.9375 -26.359375 C 24.925781 -26.804688 24.546875 -27.128906 23.796875 -27.328125 L 22.328125 -27.75 L 22.328125 -28.328125 L 30.921875 -28.328125 L 30.921875 -27.75 L 29.515625 -27.390625 C 28.648438 -27.148438 27.976562 -26.84375 27.5 -26.46875 C 27.03125 -26.101562 26.523438 -25.523438 25.984375 -24.734375 L 19.796875 -16.375 L 27.859375 -3.828125 C 28.835938 -2.296875 30.15625 -1.316406 31.8125 -0.890625 L 32.75 -0.59375 L 32.75 0 L 16.5 0 L 16.5 -0.59375 L 17.5 -0.828125 C 18.164062 -0.984375 18.585938 -1.304688 18.765625 -1.796875 C 18.941406 -2.285156 18.832031 -2.84375 18.4375 -3.46875 L 13.25 -11.546875 L 7.65625 -3.421875 C 7.1875 -2.785156 7.039062 -2.242188 7.21875 -1.796875 C 7.394531 -1.347656 7.796875 -1.046875 8.421875 -0.890625 L 9.609375 -0.59375 L 9.609375 0 Z M 0.765625 0 "/></g></g></g></svg>