<svg xmlns="http://www.w3.org/2000/svg" xmlns:xlink="http://www.w3.org/1999/xlink" width="72" zoomAndPan="magnify" viewBox="0 0 54 54" height="72" preserveAspectRatio="xMidYMid meet" version="1.0"><defs><g/></defs><g fill="#06f8fd" fill-opacity="1"><g transform="translate(11.102024, 48.231822)"><g><path d="M 15.890625 -14.140625 L 15.328125 -24.8125 C 17.296875 -25.53125 18.882812 -26.640625 20.09375 -28.140625 C 21.3125 -29.648438 21.921875 -31.472656 21.921875 -33.609375 C 21.921875 -36.117188 21.457031 -38.097656 20.53125 -39.546875 C 19.613281 -40.992188 18.46875 -41.71875 17.09375 -41.71875 C 15.875 -41.71875 14.9375 -41.296875 14.28125 -40.453125 C 13.632812 -39.617188 13.125 -38.488281 12.75 -37.0625 L 11.9375 -34.046875 C 11.5625 -32.628906 10.921875 -31.613281 10.015625 -31 C 9.117188 -30.394531 8.175781 -30.15625 7.1875 -30.28125 C 6.207031 -30.40625 5.359375 -30.851562 4.640625 -31.625 C 3.929688 -32.40625 3.578125 -33.46875 3.578125 -34.8125 C 3.578125 -36.476562 4.191406 -37.921875 5.421875 -39.140625 C 6.660156 -40.359375 8.242188 -41.300781 10.171875 -41.96875 C 12.097656 -42.632812 14.109375 -42.96875 16.203125 -42.96875 C 20.441406 -42.96875 23.765625 -42.066406 26.171875 -40.265625 C 28.578125 -38.472656 29.78125 -35.773438 29.78125 -32.171875 C 29.78125 -29.703125 29.171875 -27.609375 27.953125 -25.890625 C 26.742188 -24.171875 25.1875 -22.773438 23.28125 -21.703125 C 21.375 -20.640625 19.394531 -19.8125 17.34375 -19.21875 L 17.03125 -14.140625 Z M 15.953125 0.9375 C 14.453125 0.9375 13.164062 0.414062 12.09375 -0.625 C 11.03125 -1.675781 10.5 -2.953125 10.5 -4.453125 C 10.5 -5.921875 11.03125 -7.1875 12.09375 -8.25 C 13.164062 -9.320312 14.453125 -9.859375 15.953125 -9.859375 C 17.503906 -9.859375 18.789062 -9.320312 19.8125 -8.25 C 20.84375 -7.1875 21.359375 -5.921875 21.359375 -4.453125 C 21.359375 -2.953125 20.84375 -1.675781 19.8125 -0.625 C 18.789062 0.414062 17.503906 0.9375 15.953125 0.9375 Z M 15.953125 0.9375 "/></g></g></g></svg>
