<svg xmlns="http://www.w3.org/2000/svg" xmlns:xlink="http://www.w3.org/1999/xlink" width="72" zoomAndPan="magnify" viewBox="0 0 54 54" height="72" preserveAspectRatio="xMidYMid meet" version="1.0"><defs><g/></defs><g fill="#1f1f1f" fill-opacity="1"><g transform="translate(8.159445, 45.868889)"><g><path d="M 5.15625 -0.703125 C 3.601562 -1.910156 3.394531 -3.300781 4.53125 -4.875 L 14.984375 -19.609375 L 6.296875 -30.96875 C 5.046875 -32.519531 5.234375 -33.882812 6.859375 -35.0625 C 8.390625 -36.3125 9.753906 -36.144531 10.953125 -34.5625 L 19.15625 -23.890625 L 27.21875 -34.5625 C 28.394531 -36.1875 29.785156 -36.375 31.390625 -35.125 C 32.941406 -33.945312 33.128906 -32.5625 31.953125 -30.96875 L 22.875 -19.015625 L 33.640625 -4.953125 C 34.796875 -3.367188 34.632812 -1.976562 33.15625 -0.78125 C 31.550781 0.46875 30.160156 0.28125 28.984375 -1.34375 L 18.765625 -14.671875 L 9.328125 -1.40625 C 8.148438 0.21875 6.757812 0.453125 5.15625 -0.703125 Z M 5.15625 -0.703125 "/></g></g></g></svg>