<svg xmlns="http://www.w3.org/2000/svg" xmlns:xlink="http://www.w3.org/1999/xlink" width="72" zoomAndPan="magnify" viewBox="0 0 54 54" height="72" preserveAspectRatio="xMidYMid meet" version="1.0"><defs><g/></defs><g fill="#ff5a6d" fill-opacity="1"><g transform="translate(7.935085, 49.599801)"><g><path d="M 17.75 -12.390625 C 15.664062 -12.390625 14.625 -13.429688 14.625 -15.515625 C 14.625 -18.148438 15.078125 -20.265625 15.984375 -21.859375 C 16.890625 -23.453125 17.976562 -24.707031 19.25 -25.625 C 20.519531 -26.550781 21.6875 -27.3125 22.75 -27.90625 C 23.84375 -28.550781 24.769531 -29.144531 25.53125 -29.6875 C 26.289062 -30.238281 26.863281 -30.910156 27.25 -31.703125 C 27.632812 -32.503906 27.828125 -33.597656 27.828125 -34.984375 C 27.828125 -37.953125 27.3125 -39.953125 26.28125 -40.984375 C 25.25 -42.015625 23.253906 -42.53125 20.296875 -42.53125 L 15.296875 -42.53125 C 12.359375 -42.53125 10.367188 -41.992188 9.328125 -40.921875 C 8.285156 -39.847656 7.765625 -37.867188 7.765625 -34.984375 C 7.765625 -32.898438 6.71875 -31.859375 4.625 -31.859375 C 2.53125 -31.859375 1.484375 -32.898438 1.484375 -34.984375 C 1.484375 -39.617188 2.628906 -43.078125 4.921875 -45.359375 C 7.210938 -47.648438 10.671875 -48.796875 15.296875 -48.796875 L 20.296875 -48.796875 C 24.972656 -48.796875 28.441406 -47.660156 30.703125 -45.390625 C 32.960938 -43.128906 34.09375 -39.660156 34.09375 -34.984375 C 34.09375 -32.347656 33.640625 -30.234375 32.734375 -28.640625 C 31.828125 -27.054688 30.738281 -25.800781 29.46875 -24.875 C 28.195312 -23.957031 27.03125 -23.203125 25.96875 -22.609375 C 24.875 -21.960938 23.945312 -21.363281 23.1875 -20.8125 C 22.425781 -20.269531 21.851562 -19.597656 21.46875 -18.796875 C 21.082031 -18.003906 20.890625 -16.910156 20.890625 -15.515625 C 20.890625 -13.429688 19.84375 -12.390625 17.75 -12.390625 Z M 16.859375 0 C 14.867188 0 13.875 -0.992188 13.875 -2.984375 L 13.875 -4.84375 C 13.875 -6.789062 14.867188 -7.765625 16.859375 -7.765625 L 18.65625 -7.765625 C 20.539062 -7.765625 21.484375 -6.789062 21.484375 -4.84375 L 21.484375 -2.984375 C 21.484375 -0.992188 20.539062 0 18.65625 0 Z M 16.859375 0 "/></g></g></g></svg>
